<svg id="Layer_1" data-name="Layer 1" xmlns="http://www.w3.org/2000/svg" viewBox="0 0 898.4 980" fill="#e62222"><path d="M949.2,824.8q0,76.5-46.6,120.9T778.8,990H221.2Q144,990,97.4,945.7T50.8,824.8c0-22.5.7-44.6,2.2-66a665.41,665.41,0,0,1,8.9-69.5,543.51,543.51,0,0,1,16.9-69.2,331.78,331.78,0,0,1,27.4-62.2q17.25-30.3,39.6-51.7t54.6-34.1q32.25-12.75,71.1-12.8c3.8,0,12.8,4.6,26.8,13.7s29.9,19.4,47.5,30.6,40.6,21.5,68.9,30.6a271.78,271.78,0,0,0,170.4,0c28.3-9.1,51.3-19.4,68.9-30.6s33.5-21.5,47.5-30.6,23-13.7,26.8-13.7c25.9,0,49.7,4.3,71.1,12.8S839.1,492,854,506.2s28.1,31.5,39.6,51.7A325.41,325.41,0,0,1,921,620.1a547.71,547.71,0,0,1,16.9,69.2,645.92,645.92,0,0,1,8.9,69.5q2.4,32.1,2.4,66ZM745,255q0,101.4-71.8,173.2T500,500q-101.4,0-173.2-71.8T255,255q0-101.4,71.8-173.2T500,10q101.4,0,173.2,71.8T745,255Z" transform="translate(-50.8 -10)"/></svg>