<svg id="Layer_1" data-name="Layer 1" xmlns="http://www.w3.org/2000/svg" viewBox="0 0 311.64 360.19"><path d="M302,194c-3.9-37.28-7.91-74.54-11.7-111.82-2.08-20.46-16.67-34.06-37.15-34.12-11.5,0-23,0-34.5,0h-3.85c-6.68-29.18-30.53-46.63-55.88-48-24.74-1.34-53.68,13.82-62.12,48h-4c-11.75,0-23.5-.08-35.25,0-19.19.16-34.27,14.25-36,33.31-1,10.57-2.17,21.13-3.27,31.69q-4,38-7.94,76-3.59,34.29-7.16,68.59C2,268.78.1,279.84,0,290.91c-.34,37.76,30.83,69,68.84,69.16,58,.21,116,.09,174,0a64.9,64.9,0,0,0,36.19-10.58c21.94-14.4,34.13-34.88,32.42-61.16C309.45,256.85,305.25,225.47,302,194ZM155.25,24.1c15.53-.19,30.78,10.41,34.08,23.83H122.42C125.11,35.32,140.35,24.28,155.25,24.1Zm99.13,310.3a55.35,55.35,0,0,1-13.32,1.66c-21.29.11-42.57.09-63.86.08H70.78c-24.42,0-43.39-16-46.43-40.12-.91-7.17.5-14.67,1.24-22,2.84-28.22,5.84-56.42,8.79-84.62q4.69-44.91,9.44-89.82c.55-5.22,1.07-10.44,1.65-15.66.86-7.73,5.38-11.8,13.22-11.82,14.63,0,29.25,0,43.88,0h148.9c9.92,0,14,3.32,15,13.19,2.51,22.85,4.77,45.73,7.15,68.59q3.94,38,7.91,76c2.08,20,4.41,40,6.18,60C289.44,309.08,274.11,329.35,254.38,334.4Z"/><path d="M204.3,120.11c-7.11-.24-12.16,5-12.46,13a36.08,36.08,0,0,1-35.86,35c-19.55.05-35.37-15.35-36.12-35.17-.29-7.7-5.28-12.93-12.23-12.82s-11.84,5.59-11.78,13.23c.25,32.13,27.35,58.72,59.88,58.77s59.72-26.34,60.12-58.53C216,125.88,211.2,120.35,204.3,120.11Z"/></svg>