<svg id="Layer_1" data-name="Layer 1" xmlns="http://www.w3.org/2000/svg" viewBox="0 0 19.81 23.8"><path d="M1.21,12.17a.9.9,0,0,0,.9-.9v-2a3.1,3.1,0,0,1,3.1-3.1H17L14.57,8.63a.91.91,0,0,0,0,1.28.92.92,0,0,0,1.28,0l4-4a.91.91,0,0,0,0-1.28l-4-4a.91.91,0,0,0-1.28,1.28L17,4.37H5.21a4.9,4.9,0,0,0-4.9,4.9v2A.9.9,0,0,0,1.21,12.17Z" transform="translate(-0.3 -0.37)"/><path d="M19.21,12.37a.9.9,0,0,0-.9.9v2a3.1,3.1,0,0,1-3.1,3.1H3.38l2.47-2.46a.92.92,0,0,0,0-1.15.91.91,0,0,0-1.28-.13l-4,4a.91.91,0,0,0,0,1.28l4,4a.92.92,0,0,0,1.28,0,.91.91,0,0,0,0-1.28L3.38,20.17H15.21a4.92,4.92,0,0,0,4.9-4.9v-2A.9.9,0,0,0,19.21,12.37Z" transform="translate(-0.3 -0.37)"/></svg>