<svg id="Layer_1" data-name="Layer 1" xmlns="http://www.w3.org/2000/svg" viewBox="0 0 89.42 19.75"><defs><style>.cls-1{fill:#121212;}</style></defs><path class="cls-1" d="M44.71,13.74c-.1.3-.2.59-.32.87a9.49,9.49,0,0,1-.63,1.18,8.3,8.3,0,0,1-1.72,2,8.43,8.43,0,0,1-2.16,1.31,8.26,8.26,0,0,1-2.36.63,7.83,7.83,0,0,1-2.37-.07,7,7,0,0,1-2.15-.8,6.6,6.6,0,0,1-.91-.66,6.22,6.22,0,0,1-.76-.78,6.37,6.37,0,0,1-1-1.83l-.09-.24-.07-.22c0-.17-.08-.33-.12-.49a2,2,0,0,1,0-.24,1.87,1.87,0,0,1,0-.25l0-.24v-.24a5,5,0,0,1,.27-1.86,4.92,4.92,0,0,1,.88-1.51,5.4,5.4,0,0,1,1.21-1,5.22,5.22,0,0,1,2.65-.81,4.43,4.43,0,0,1,1.18.16,3.68,3.68,0,0,1,1,.43,3.61,3.61,0,0,1,1.13,1.16c0,.1.1.18.15.27s.07.17.11.25l.09.21a1.21,1.21,0,0,1,.05.18l.1.32-.12-.31-.08-.18-.1-.2-.13-.23-.17-.25A3.42,3.42,0,0,0,37,9.2,3.65,3.65,0,0,0,36,8.86,4.33,4.33,0,0,0,35,8.8a4.73,4.73,0,0,0-2.35.88A4.5,4.5,0,0,0,30.89,12a4.31,4.31,0,0,0-.15,1.57c0,.07,0,.14,0,.21l.07.41c0,.07,0,.13.05.2s.08.28.12.41l.08.22c0,.08.06.13.08.2a5.65,5.65,0,0,0,.93,1.51,4.88,4.88,0,0,0,1.44,1.14,5.83,5.83,0,0,0,1.82.61,6.77,6.77,0,0,0,2,0,7.41,7.41,0,0,0,3.82-1.76A7.18,7.18,0,0,0,43.46,13a10.07,10.07,0,0,0-.08-4.69A10.28,10.28,0,0,0,41.08,4a9.32,9.32,0,0,0-1.89-1.6,8.38,8.38,0,0,0-1.11-.59,9.63,9.63,0,0,0-1.18-.4,8.82,8.82,0,0,0-1.25-.21c-.21,0-.42,0-.64,0H34.7l-.69,0c-.11,0-.23,0-.33,0L33,1.3l-.66.09L32,1.44l-.33.07a13.78,13.78,0,0,0-4.91,2,18.09,18.09,0,0,0-3.9,3.72c-.57.71-1.1,1.45-1.62,2.19L19.73,11.7c-.53.75-1.07,1.49-1.66,2.19-.14.18-.3.35-.45.52l-.25.25-.12.13-.06.06,0,0,0,0-.49.45a2.88,2.88,0,0,1-.27.22l-.28.22-.27.22-.28.19c-.19.13-.38.27-.58.38l-.59.35-.61.31a12.71,12.71,0,0,1-2.58.89,11.69,11.69,0,0,1-2.7.23l-.67-.05-.67-.1c-.22,0-.44-.09-.65-.14S6,18,5.83,17.9l-.62-.23-.61-.28-.15-.07,0,0-.13-.07L4,17.08,3.9,17a.55.55,0,0,1-.14-.09l-.28-.19-.28-.19-.26-.21-.25-.21-.24-.23a2.55,2.55,0,0,1-.24-.23L2,15.41c-.07-.08-.15-.16-.22-.25l-.19-.26A7.55,7.55,0,0,1,.4,12.64,7.73,7.73,0,0,1,0,10.18,7.89,7.89,0,0,1,.36,7.8,7.17,7.17,0,0,1,1.42,5.72,6.48,6.48,0,0,1,3,4.16a6.69,6.69,0,0,1,2-.87l.51-.11L6,3.11l.12,0h.64l.28,0a4.37,4.37,0,0,1,1.87.67,4.29,4.29,0,0,1,1.91,2.89l0,.2v.22c0,.12,0,.22,0,.38s0,.28-.06.42-.07.26-.12.38a2.71,2.71,0,0,1-.86,1.17A2.8,2.8,0,0,1,8.66,10H8.51l-.14,0H8.06a1.61,1.61,0,0,1-.55-.17,1.45,1.45,0,0,1-.42-.3,1.67,1.67,0,0,1-.29-.38,1.56,1.56,0,0,1-.15-.39,1.42,1.42,0,0,1,0-.2V8.34A1,1,0,0,1,6.67,8s0-.1.07-.14l.08-.12.09-.1L7,7.56l.18-.1.15,0,.12,0h.09s0,0,.06,0a.07.07,0,0,1,0,.06h0l-.08,0a.47.47,0,0,0-.09,0l-.12.06-.14.11-.06.07A.7.7,0,0,0,7,7.87.31.31,0,0,0,7,8l0,.11a.71.71,0,0,0,0,.26,1.23,1.23,0,0,0,.8,1,1.34,1.34,0,0,0,.4.07h.22l.21,0A2,2,0,0,0,10,8,2.8,2.8,0,0,0,10,7.72a2.65,2.65,0,0,0,0-.27c0-.07,0-.21,0-.32s0,0,0,0V7.07L10,7l0-.15a3.29,3.29,0,0,0-1.6-2.13,3.51,3.51,0,0,0-1.4-.42H6.58l-.23,0H6.27l-.1,0-.42.07-.41.11a5.53,5.53,0,0,0-1.54.76A5.2,5.2,0,0,0,2.54,6.53a6.09,6.09,0,0,0-.82,1.7,6.57,6.57,0,0,0-.29,1.95,6.66,6.66,0,0,0,.33,2,6.58,6.58,0,0,0,1,1.89l.16.21c0,.08.12.14.17.21l.18.21.19.19.2.2.21.18.21.18.21.16.22.16.12.08.13.08.26.17.06,0s0,0,0,0l0,0,.12.06.52.27.53.21a3.92,3.92,0,0,0,.55.18,4,4,0,0,0,.57.15l.58.12.59.06A9.85,9.85,0,0,0,11,17.11a11.33,11.33,0,0,0,2.39-.72,11.58,11.58,0,0,0,2.22-1.25l.25-.19c.08-.07.17-.12.25-.2l.51-.44,0,0,0,0,.06,0,.11-.12.24-.23c.14-.16.3-.31.44-.48a22.83,22.83,0,0,0,1.64-2.11c.53-.73,1-1.49,1.57-2.24s1.06-1.51,1.63-2.24a20,20,0,0,1,4-3.95A14.78,14.78,0,0,1,31.49.49L31.83.4l.35-.06c.24-.05.46-.1.7-.13l.72-.1.34,0L34.63,0H35a5.93,5.93,0,0,1,.73,0,10.08,10.08,0,0,1,1.45.18,9.46,9.46,0,0,1,1.4.43,9.33,9.33,0,0,1,1.31.64,10,10,0,0,1,2.23,1.8,11.18,11.18,0,0,1,1.66,2.28,10.63,10.63,0,0,1,.93,2.27,10.63,10.63,0,0,1,.93-2.27,11.52,11.52,0,0,1,1.65-2.28,9.79,9.79,0,0,1,2.24-1.8A8.82,8.82,0,0,1,50.84.62a9.46,9.46,0,0,1,1.4-.43A9.91,9.91,0,0,1,53.69,0a5.93,5.93,0,0,1,.73,0h.37l.68.06.35,0,.71.1c.24,0,.47.08.7.13l.35.06.35.09a14.65,14.65,0,0,1,5.16,2.35,20,20,0,0,1,4,4c.57.73,1.11,1.49,1.63,2.24s1,1.51,1.56,2.24a24.69,24.69,0,0,0,1.64,2.11c.15.17.3.32.45.48l.23.23.12.12.06,0s0,0,0,0l0,0,.5.44c.09.08.17.13.26.2l.25.19a11.36,11.36,0,0,0,4.6,2,9.87,9.87,0,0,0,2.42.11l.6-.06.58-.12a3.87,3.87,0,0,0,.56-.15,3.22,3.22,0,0,0,.55-.18l.54-.21.51-.27.13-.06,0,0s0,0,0,0l.07,0,.51-.33.21-.16.22-.16.21-.18.21-.18.19-.2.19-.19.18-.21.18-.21.16-.21A6.77,6.77,0,0,0,88,10.18a6.26,6.26,0,0,0-.28-1.95,5.85,5.85,0,0,0-.83-1.7,5,5,0,0,0-1.26-1.26,5.39,5.39,0,0,0-1.54-.76l-.41-.11-.41-.07-.1,0h-.09l-.22,0h-.36a3.51,3.51,0,0,0-1.4.42,3.37,3.37,0,0,0-1,.93,3.55,3.55,0,0,0-.56,1.2l0,.15,0,.08v.06h0a2,2,0,0,0,0,.32,2.53,2.53,0,0,0,0,.27,1.43,1.43,0,0,0,.07.28,2.13,2.13,0,0,0,.55.9,2.18,2.18,0,0,0,.86.48l.22,0h.22a1.28,1.28,0,0,0,.39-.07,1.26,1.26,0,0,0,.81-1,.69.69,0,0,0,0-.26l0-.11-.06-.1a.18.18,0,0,0-.06-.09l-.06-.07-.13-.11L82,7.54l-.09,0-.08,0h0s0,0,0-.06a0,0,0,0,1,.06,0H82l.11,0,.15,0a.81.81,0,0,1,.18.1l.09.08a.43.43,0,0,1,.09.1l.09.12.06.14a1,1,0,0,1,.07.34v.19a1.38,1.38,0,0,1,0,.2,1.29,1.29,0,0,1-.16.39,1.57,1.57,0,0,1-.7.68,1.68,1.68,0,0,1-.55.17h-.6a2.75,2.75,0,0,1-1.18-.52,2.82,2.82,0,0,1-.87-1.17,2.38,2.38,0,0,1-.11-.38,1.85,1.85,0,0,1-.06-.42,2.53,2.53,0,0,1,0-.38.43.43,0,0,1,0,0V6.86l0-.2A4.35,4.35,0,0,1,82.37,3.1l.27,0h.64l.13,0,.5.07.5.11A6.4,6.4,0,0,1,88,5.72,7.43,7.43,0,0,1,89.06,7.8a8.21,8.21,0,0,1,.36,2.38,7.83,7.83,0,0,1-1.59,4.72l-.2.26a2.52,2.52,0,0,1-.21.25l-.22.24a2.49,2.49,0,0,1-.23.23l-.24.23-.26.21-.25.21-.28.19-.28.19-.14.09-.13.08-.27.15L85,17.3l0,0-.15.07-.6.28-.63.23a6,6,0,0,1-.64.19c-.22.05-.43.11-.66.14l-.66.1-.68.05a11.6,11.6,0,0,1-2.69-.23,12.5,12.5,0,0,1-2.58-.89L75.06,17l-.59-.35a5.79,5.79,0,0,1-.58-.38L73.61,16l-.28-.22-.27-.22a2.88,2.88,0,0,1-.27-.22l-.5-.45,0,0,0,0-.06-.06L72,14.66l-.24-.25c-.15-.17-.31-.34-.46-.52-.59-.7-1.13-1.44-1.65-2.19s-1-1.51-1.55-2.26S67.08,8,66.51,7.25a17.64,17.64,0,0,0-3.9-3.72,13.78,13.78,0,0,0-4.91-2l-.32-.07-.33-.05c-.22,0-.44-.07-.66-.09l-.65-.06c-.11,0-.22,0-.34,0l-.68,0H54.4c-.21,0-.42,0-.63,0a8.58,8.58,0,0,0-1.25.21,9.78,9.78,0,0,0-1.19.4,8.93,8.93,0,0,0-1.1.59A9.12,9.12,0,0,0,48.33,4a10.1,10.1,0,0,0-1.41,2A8.91,8.91,0,0,0,46,8.3,9.94,9.94,0,0,0,46,13a7.18,7.18,0,0,0,2.28,3.74,7.42,7.42,0,0,0,3.81,1.76,6.77,6.77,0,0,0,2,0,5.89,5.89,0,0,0,1.83-.61,4.83,4.83,0,0,0,1.43-1.14,5.41,5.41,0,0,0,.93-1.51,1.19,1.19,0,0,0,.08-.2l.08-.22c.05-.13.08-.27.12-.41a1.46,1.46,0,0,0,0-.2l.08-.41c0-.07,0-.14,0-.21A4.31,4.31,0,0,0,58.52,12a4.49,4.49,0,0,0-1.7-2.33,4.8,4.8,0,0,0-2.35-.88,4.28,4.28,0,0,0-1.09.06,3.37,3.37,0,0,0-.91.34,3.32,3.32,0,0,0-1.15,1l-.18.25c0,.08-.08.16-.12.23l-.11.2a1.34,1.34,0,0,0-.07.18l-.13.31.1-.32.06-.18.09-.21a1.36,1.36,0,0,1,.11-.25c0-.09.1-.17.15-.27A3.5,3.5,0,0,1,52.35,9a3.61,3.61,0,0,1,.95-.43,4.43,4.43,0,0,1,1.18-.16,5.34,5.34,0,0,1,3.87,1.86,4.89,4.89,0,0,1,.87,1.51,5,5,0,0,1,.28,1.86,1.93,1.93,0,0,1,0,.24l0,.24,0,.25a2,2,0,0,1,0,.24,5,5,0,0,1-.12.49l-.07.22c0,.08-.06.16-.08.24a6.65,6.65,0,0,1-1,1.83,6.07,6.07,0,0,1-1.67,1.44,6.86,6.86,0,0,1-2.15.8,7.83,7.83,0,0,1-2.37.07,8.43,8.43,0,0,1-2.36-.63,8.55,8.55,0,0,1-2.15-1.31A8.61,8.61,0,0,1,45,14.61,8.18,8.18,0,0,1,44.71,13.74Z"/></svg>