<svg id="Layer_1" data-name="Layer 1" xmlns="http://www.w3.org/2000/svg" width="50" height="50" viewBox="0 0 393.62 347.57" style="fill:#fff;"><path d="M146.63.16C107.31.16,68,.42,28.67,0,16.91-.13,5.74,7.78,5.87,22.6q.5,59.16,0,118.34c-.11,13.27,9.39,22.76,22.54,22.41,17.28-.46,34.58-.11,51.87-.11h5c-1,9.47-1.65,18.39-3.06,27.19C79,210.56,72,229.22,58.73,245.06c-11.56,13.82-26.17,23.65-42.42,31C8.44,279.62,2.28,284.32,0,293v7.69c5.26,11.34,10.39,22.74,15.8,34,5.68,11.85,16.6,15.77,28.49,10.49,23.68-10.53,45.41-24,64.4-41.79,28.49-26.62,46.64-58.85,53.53-97.38,4.7-26.29,6.61-52.8,6.78-79.44.22-34.71.08-69.42.08-104.12C169.08,8.32,160.87.17,146.63.16Z"/><path d="M393.54,22.33c0-14-8.2-22.16-22.17-22.16C331.92.15,292.46.42,253,0c-11.71-.12-22.8,8-22.65,22.78.41,39.32.13,78.65.17,118a29,29,0,0,0,.65,7.22c2.52,9.7,10,15.18,20.79,15.23,17.55.09,35.1,0,52.65,0h4.46c0,1.56.1,2.69,0,3.8-1,9.27-1.48,18.64-3.2,27.78-4.29,22.78-13.66,43.05-31,59.05C263.78,264,251,271.43,237.49,277.77c-12,5.63-16.08,16.47-10.71,28.33q6.71,14.85,13.94,29.46c5.44,11,16.23,14.8,27.48,9.93,20.42-8.84,39.49-20,56.55-34.34,30.35-25.6,51.26-57.1,60-96.22,6.08-27.23,8.36-54.89,8.65-82.68C393.8,95.61,393.54,59,393.54,22.33Z"/></svg>