<svg id="Layer_1" data-name="Layer 1" xmlns="http://www.w3.org/2000/svg" viewBox="0 0 30.49 25.93"><path d="M30.8,7.7a8.44,8.44,0,0,0-3.24-5.64A8.67,8.67,0,0,0,16.23,3l-.64.65-.82-.83A8.43,8.43,0,0,0,8.84.33H8.7A8.31,8.31,0,0,0,.39,8.58,9,9,0,0,0,3,15l10.3,10.3a3.3,3.3,0,0,0,2.3,1h0a3.27,3.27,0,0,0,2.29-1L28.39,14.8a8.12,8.12,0,0,0,.72-.82A8.43,8.43,0,0,0,30.8,7.7ZM26.64,13,16.13,23.55a.75.75,0,0,1-.53.22.73.73,0,0,1-.54-.23L4.77,13.24A6.49,6.49,0,0,1,2.89,8.62,5.79,5.79,0,0,1,4.65,4.47,5.86,5.86,0,0,1,8.73,2.82h0A6,6,0,0,1,13,4.57l1.71,1.7a1.23,1.23,0,0,0,1.77,0L18,4.73a6.15,6.15,0,0,1,8-.68,6,6,0,0,1,.63,9Z" transform="translate(-0.39 -0.33)"/></svg>