<svg id="Layer_1" data-name="Layer 1" xmlns="http://www.w3.org/2000/svg" viewBox="0 0 306.63 306.58"><defs><style>.cls-1{fill:#204289;}</style></defs><path class="cls-1" d="M23.44,137c22.09,50.23,55.88,90.87,101.33,121.53,47,31.7,99.05,47.47,155.72,48.09,15.28.17,26.05-10.44,26.1-25.81q.07-26.81,0-53.59a29.14,29.14,0,0,0-1-7.68c-3.18-11.31-12.11-17.63-24.4-18.37-10.53-.63-21.1-1.48-31.51-3.11-8.13-1.27-16-4-24.08-5.85a24.89,24.89,0,0,0-21.93,4.89c-11.1,8.63-22.38,17-33.66,25.43a3.58,3.58,0,0,1-3.1.17c-3-1.51-5.91-3.3-8.86-5-32.55-18.59-56.87-45-74.18-78.07a3.23,3.23,0,0,1,.1-2.85c8.4-11.28,16.81-22.56,25.44-33.66,5.26-6.76,7.24-14.08,5.12-22.41-1.39-5.4-3-10.74-4.35-16.15-3.25-13.34-4.32-26.95-4.78-40.63-.27-8-3.58-14.62-10.17-19C91.86,2.61,87.66,1.58,83.84,0H21.56C15,1.47,9,4,5.24,9.8,3,13.37,1.71,17.62,0,21.56v15C.78,44.35,1.43,52.18,2.36,60A268.34,268.34,0,0,0,23.44,137Z"/></svg>