<svg xmlns="http://www.w3.org/2000/svg" id="Layer_1" data-name="Layer 1" viewBox="0 0 454.05 467.31"><defs><style>.cls-1{fill:#2b6cf5;stroke:#2b6cf5;stroke-miterlimit:10;stroke-width:10px;}</style></defs><path class="cls-1" d="M314.44,147A87.42,87.42,0,1,0,227,234.44h0A87.49,87.49,0,0,0,314.44,147ZM151.8,147A75.23,75.23,0,1,1,227,222.26h0A75.32,75.32,0,0,1,151.8,147Z" transform="translate(0)"></path><path class="cls-1" d="M443.19,450.12H241.09c34.71-37.75,149.8-170.59,152.32-274.47,1.22-51.11-13.14-92.38-42.68-122.65C321,22.49,275.85,5,227,5S133.09,22.51,103.31,53c-29.54,30.28-43.9,71.54-42.67,122.65C63.15,279.53,178.25,412.37,213,450.12H10.85a6.1,6.1,0,0,0,0,12.19H443.19a6.1,6.1,0,0,0,0-12.19ZM112,61.51c27.5-28.17,69.42-44.33,115-44.33s87.47,16.16,115,44.33c27.18,27.83,40.37,66.14,39.23,113.84-2.51,104-128.89,244.81-154.2,272-25.31-27.17-151.69-168-154.2-272C71.67,127.65,84.87,89.35,112,61.51Z" transform="translate(0)"></path></svg>