<svg xmlns="http://www.w3.org/2000/svg" id="Layer_1" data-name="Layer 1" viewBox="0 0 383.35 442.3"><path d="M.07,126.16q-.18,117,.06,234A80.76,80.76,0,0,0,2.19,379c15,61.22,82.16,78.72,128.4,49.64,19.77-12.43,30.49-31.67,35-53.91,6.35-31.24,14.64-61.8,27.86-90.84,9.64-21.18,20-42,29.78-63.15,6.53-14.2,12.47-28.66,18.83-43.38,6.35,1.76,13.08,3.74,19.89,5.42a5.4,5.4,0,0,1,4.53,4.26c3,9.69,9.6,15.41,19.71,16.93,5.24.79,10.49,1.52,16,2.32,0,17.52,0,34.77,0,52a3.64,3.64,0,0,1-1.24,2.51c-5.15,3.91-6.13,9.3-6.12,15.34q.1,66.69,0,133.39c0,3.75-.13,7.5.1,11.23.77,12.6,9.92,21.28,22.55,21.39q14.24.12,28.49,0c12.85-.12,22.53-9.45,22.57-22.32.12-48.78.05-97.56,0-146.35a16.13,16.13,0,0,0-5.13-11.92,8.23,8.23,0,0,1-2.26-5c-.24-7.33-.1-14.67-.1-22V214c16.85-4.43,22.23-11.52,22.23-28.79,0-26.48.06-53,0-79.43-.06-16.14-12.64-26.6-28.64-24.33q-33.53,4.75-67.1,9.14c-11,1.44-18.1,7.3-21.46,17.85-.34,1.08-1.1,2.55-2,2.84-4.45,1.44-9,2.55-13.51,3.77a10.42,10.42,0,0,1-.66-1.62c-.15-.7-.2-1.42-.3-2.13-7.68-52.21-36.42-87.35-86-105.07C154.67,3,144.93,2,135.55,0H115.69c-7.33,1.37-14.78,2.28-22,4.17C38.16,18.71.16,68.16.07,126.16Zm353.81,151q0,69.94,0,139.89c0,8-2.35,10.32-10.26,10.33-8.35,0-16.7,0-25.05,0-6.12,0-8.9-2.57-8.9-8.53q-.07-71.89,0-143.78a20.26,20.26,0,0,1,.25-2.17h44Zm-7.51-174.38V97.61c4.14-.61,7.82-1.29,11.52-1.66,6.37-.64,10.4,3,10.7,9.46,0,.72,0,1.44,0,2.16q0,39.9,0,79.81c0,8.77-3.61,12.05-12.23,11.22-10-1-10-1-10-10.79ZM346.25,214c.14,14.48.1,29,.1,43.69H317.17v-49.5c9.08,1.19,17.91,2.29,26.71,3.58C344.79,212,346.24,213.26,346.25,214ZM280.13,114.9c0-5.68,3-8.8,8.54-9.56,14.07-1.94,28.16-3.82,42.78-5.79v95.66l-18.72-2.55c-8.11-1.1-16.24-2.08-24.32-3.34-5.47-.85-8.24-3.83-8.27-9.32Q279.95,147.45,280.13,114.9Zm-15.06,11.52v41.93L191.74,148.1l0-1.43Zm-31-19.91c.67,4.09,1.1,8.22,1.68,12.65l-21.4,6c-.9-6.41-1.37-12.58-2.68-18.56-9.35-42.93-47-71.34-91.83-69.49-41.13,1.69-76.72,34.5-81.92,76.53-3.39,27.44,2.29,53.2,17.86,76.42a49.53,49.53,0,0,0,4.85,6.06c3.06,3.29,7.34,3.67,10.41,1.12,3.23-2.69,3.61-7.11.59-10.76-9.4-11.36-14.71-24.56-17.73-38.82-.2-1-.28-2-.59-4.23,7.44-.29,14.7-1.3,21.83-.72,21.87,1.76,38.75,11.32,47,32.71,4.56,11.81,3.61,24.05,1.73,36.22-3,19.54-11.09,37.34-19.14,55.18-7.78,17.27-15,34.78-22.33,52.26-1.37,3.28-1.83,6.94-2.84,10.38-1.93,6.63-6.71,10.1-12.59,9.28a12,12,0,0,1-10-12.25c.2-6.15,1.4-12.26,2.11-18.39a169.57,169.57,0,0,0-6.47-71.2c-.09-.27-.2-.54-.3-.81-2.34-6.44-6-8.85-10.72-7-4.33,1.66-5.24,5.74-3.17,12.13,6.89,21.27,8.54,43.06,6,65.21-.69,6.14-2.06,12.23-2.3,18.38-.67,17.93,14,31.45,30.9,28.43,10-1.79,17.61-7.84,19.94-17.59,6.11-25.46,18.63-48.16,29.29-71.68,8.34-18.41,15.15-37.26,17.22-57.55,2.71-26.7-3.7-49.82-26.64-66-16.06-11.36-34.34-14-53.5-12.11-2.4.23-4.78.56-7.51.89A71.91,71.91,0,0,1,66.4,81.16a73.65,73.65,0,0,1,132,34.3,3,3,0,0,1,.05.43c.14,4,1.71,8.87,0,11.82-1.53,2.63-6.63,3.3-10.25,4.57-6.79,2.4-11.12,8-11.22,14.78-.11,7.15,4,12.79,11,15.29,1.08.38,2.17.71,4,1.29-2.55,6-4.55,12.17-7.61,17.72-9.3,16.85-19.12,33.42-28.53,50.21-4.77,8.51-9.13,17.25-13.54,26a26.79,26.79,0,0,0-2,6.13,7.1,7.1,0,0,0,4.77,8.53c3.46,1.19,7.49,0,8.71-3.54C161.73,246,177.08,227.41,188,206.4c6.54-12.59,12.55-25.46,19-38.7l20.15,5.48c-2.05,5.42-3.71,10.72-6,15.73-9.77,21.28-19.48,42.59-29.68,63.67-18,37.16-32.41,75.46-39.61,116.3a86.47,86.47,0,0,1-6.56,20c-13.87,30.85-42.63,41.08-70.84,38-35.94-3.95-59.7-31.74-59.71-68q0-116.13,0-232.26C14.84,72.7,51,28.06,103.25,17,163.67,4.24,224.06,45.55,234.06,106.51Z"></path></svg>