<svg xmlns="http://www.w3.org/2000/svg" id="Layer_1" data-name="Layer 1" viewBox="0 0 384 369.41"><path d="M366.66,208.07c-18.09-15.66-46.15-15.54-65.46.72-6.22,5.25-11.48,11.64-17.3,17.64a23.23,23.23,0,0,0-2-2.53c-6-6-11.35-12.79-18.06-17.8-24.43-18.28-57.05-8.33-69.4,10.3a57,57,0,0,0-9.42,37.42c.87,9.71,3.2,19.29,4.84,28.74-33.86-2.87-61.82-36.6-59.57-69.19,7.48-.54,13.67-3.78,15.66-11.16,1.25-4.68,3.58-5.86,7.57-6a10.27,10.27,0,0,0,1.11-.18c38.62-6.38,70.06-42.17,71-81.32.44-17.49.13-35,.15-52.5,0-.62.2-1.47-.13-1.83-1.48-1.63-2.88-3.82-4.77-4.48-2.58-.9-4.89.72-5.8,3.43a14.18,14.18,0,0,0-.52,4.42c0,16,.13,32-.09,48a75.93,75.93,0,0,1-59.64,72.81c-2,.43-4,.63-6.32,1,.3-3.25.63-6,.77-8.7.11-2.06,1-2.94,3.07-3.43,30.59-7.13,50.77-32.48,50.89-63.84.05-15.5,0-31,0-46.5s-6.87-25.5-21.41-31.35c-.86-.34-2-1.35-2-2.11-.22-3.2-.09-6.43-.09-9.78a17,17,0,0,1,1.91.21,42.72,42.72,0,0,1,26.18,18.08c1.07,1.57,2.64,3.56,4.23,3.81,1.86.29,5-.55,5.75-1.91a8,8,0,0,0,0-6.79C209.2,19.23,196.59,11,180.39,8.29c-2.08-.35-4.49-1-6-2.34-6.11-5.61-13-7.48-20.73-4.59s-12,8.9-12.46,17.12a182,182,0,0,0,0,19.12,19.18,19.18,0,0,0,15.38,18c8.83,1.66,17-2.44,21.18-10.59.38-.74.82-1.45,1.2-2.14a18.66,18.66,0,0,1,13,18q.14,25.13,0,50.25a51.14,51.14,0,0,1-10.54,31A52.34,52.34,0,0,1,151,162.19c-4.51-12.3-8.53-15.07-21.51-15.07-11.88,0-23.75,0-35.63,0a23.54,23.54,0,0,0-5.57.51c-7.47,1.86-11.45,7-13,14.3-5.41-.61-11.5-3.23-18.53-7.89-3.86-2.55-7.23-2.29-9.18.72s-1,5.89,2.76,8.51a65.54,65.54,0,0,0,23.15,10.2c1,.24,2.63,1.06,2.77,1.82.59,3.26.73,6.6,1,10a18.14,18.14,0,0,1-2.26,0C39.15,179.62,11.68,148,11.3,111.68q-.27-25.5,0-51A42.16,42.16,0,0,1,41.1,20.86c1.23-.38,2.53-.54,4.11-.87,0,2.75-.13,5,0,7.22.21,2.78-.5,4.21-3.47,5.45C29.69,37.7,23,47.12,22.66,60.18c-.43,17.49-.26,35,0,52.5A60,60,0,0,0,30,140.3c2.2,4.12,6.31,5.15,9.21,2.32,2.31-2.25,2.18-4.81.73-7.54a48.61,48.61,0,0,1-6.07-22.21c-.23-17.5-.29-35,0-52.5.13-8.21,4.58-14,12.2-17.46.43.81.78,1.47,1.12,2.13,4.34,8.3,12.8,12.41,21.57,10.47a19.32,19.32,0,0,0,15-18.34c.25-6.11.31-12.26,0-18.37-.44-8.37-4.61-14.52-12.54-17.46C63.48-1.54,56.54.32,50.53,6a8.61,8.61,0,0,1-4.46,2.21A53.62,53.62,0,0,0,1.58,48C1,50.31.53,52.62,0,54.92v63.76a11.25,11.25,0,0,1,.67,2.06,87.13,87.13,0,0,0,75.11,75.91c2.15.28,2.78,1.08,3.23,3.13,1.69,7.67,7.28,12.46,15.15,13.41.58.07,1.14.22,1.59.31a8.19,8.19,0,0,1,.25,1c0,.62,0,1.24.07,1.87q3.69,63.92,61.26,91.89c15.85,7.68,32.94,9.74,50.39,9.08,2.65-.1,4.28.85,6,2.77,4.94,5.45,10.1,10.73,15.31,15.93,3.23,3.21,6.82,3.36,9.17.73s1.82-5.7-1.42-8.84l-10.87-10.54c8.57,0,15.9.13,23.22-.06a7.78,7.78,0,0,1,7.15,3.36,35.79,35.79,0,0,0,43.94,9.84,36.18,36.18,0,0,0,19.36-41.06C316.1,275,304,263.91,289.72,262c-15.43-2.05-29.77,5-37.11,18.57-1.24,2.29-2.57,3.1-5.15,3.08q-20.25-.21-40.49,0c-2.47,0-3.73-.62-4.68-3A85.52,85.52,0,0,1,196,252.21a50.92,50.92,0,0,1,4.63-24.05c9.37-19.54,34.92-26.46,54.3-14.63,10.3,6.29,17.48,15.46,23.58,25.69a10.61,10.61,0,0,0,5.7,4.56c3.1.82,4.65-2,6.06-4.5,5.78-10.26,13.17-19,23.13-25.61,18.41-12.14,50.67-6,57.47,22.19a61.61,61.61,0,0,1,1.75,12.95c.37,18-5.67,34.12-15.14,49-16.69,26.27-40.47,44.54-67.6,58.87-4.06,2.15-8.25,1.75-12.18-.53-6.26-3.64-12.48-7.35-18.69-11.07-3.78-2.27-7-2-8.89.91s-1,6.09,2.74,8.44c6.16,3.81,12.39,7.48,18.64,11.13,8.51,5,17.26,5.21,25.58,0,11.54-7.19,23.28-14.19,34-22.49,20.67-16,37.22-35.59,46.39-60.46,3-8.11,4.37-16.8,6.49-25.22V243.18c-.25-1.07-.58-2.14-.75-3.23C381.22,227.5,376.39,216.49,366.66,208.07ZM168.32,37.25a7.55,7.55,0,0,1-7.88,7.36c-4.36,0-7.67-3.09-8-7.74-.21-3,0-6,0-9s-.15-5.74,0-8.6c.29-4.68,3.52-7.84,7.83-7.92a7.63,7.63,0,0,1,8.09,7.56C168.64,25,168.63,31.16,168.32,37.25ZM56.55,19.35c.19-4.91,3.61-8,8.12-8s7.65,3.33,7.89,8.26c0,.71.06,1.43.07,2.14,0,2.15,0,4.3,0,6.45s.06,4.12,0,6.18c0,.68,0,1.37-.06,2.05-.28,4.93-3.49,8.13-8,8.15s-7.85-3.13-8-8.06C56.33,30.82,56.32,25.08,56.55,19.35ZM284.4,273a25,25,0,1,1-25,24.95A25,25,0,0,1,284.4,273ZM89.83,195.68q-1.71-15.26-3.22-30.54c-.41-4.13,1.86-6.67,6.09-6.73,6.74-.1,13.48,0,20.23,0s13.24-.06,19.85,0c4.81.05,7,2.62,6.52,7.43q-1.45,14.34-3,28.68c-.65,6.1-2.21,7.48-8.36,7.49q-15.54,0-31.09,0C92.1,202,90.37,200.46,89.83,195.68Zm108.3,99.08c15.23.31,30.48.07,45.72.08,1.33,0,2.67,0,4.08,0,.26,3.86.49,7.31.75,11.29H244.8q-21.74,0-43.47,0c-47.45-.07-85.09-31.85-93-78.61-.76-4.52-.86-9.15-1.31-14.15h10.83c1.13,7,1.69,14,3.42,20.73A80.55,80.55,0,0,0,198.13,294.76Z"></path></svg>