<svg id="Layer_1" data-name="Layer 1" xmlns="http://www.w3.org/2000/svg" viewBox="0 0 145.04 30.35"><defs><style>.cls-1{fill:#2b6cf5;}</style></defs><path class="cls-1" d="M15.4,4.18A9.1,9.1,0,0,0,0,10.47a9.09,9.09,0,0,0,1.51,5.12H8.15l1.18-2a.9.9,0,0,1,1.53,0l2.5,3.92L17,9.85a.9.9,0,0,1,1.61,0l3.11,5.78h7.58C34.9,6.82,23.81-3.17,15.4,4.18Z"/><path class="cls-1" d="M20.38,17.84l-2.52-4.68-3.57,7.53a.91.91,0,0,1-1.58.1l-2.59-4.07-.69,1.16a.91.91,0,0,1-.77.44H2.93L14.76,30.09a.9.9,0,0,0,1.27,0L27.86,18.32H21.17a.91.91,0,0,1-.79-.48Z"/><path class="cls-1" d="M48.73,9.37C48.31,8,47.21,7.31,45.41,7.31h-1q-4.92,0-4.92,4.62V23.44c0,3.1,1.64,4.66,4.92,4.66h1c1.88,0,3-.79,3.41-2.35V28.1h5.75V0H48.73Zm0,13q0,1.35-1.26,1.35h-1q-1.14,0-1.14-1.05V12.77a1.11,1.11,0,0,1,.25-.82,1.3,1.3,0,0,1,.89-.23h1c.84,0,1.26.45,1.26,1.34Z"/><path class="cls-1" d="M68.05,7.31h-5a5.48,5.48,0,0,0-4,1.19A4.7,4.7,0,0,0,57.89,12V23.44a4.68,4.68,0,0,0,1.2,3.46,5.44,5.44,0,0,0,4,1.2h5a5.46,5.46,0,0,0,4-1.2,4.68,4.68,0,0,0,1.2-3.46V12A4.7,4.7,0,0,0,72,8.5,5.51,5.51,0,0,0,68.05,7.31Zm-.59,15.54c0,.7-.37,1-1.13,1H64.78q-1.14,0-1.14-1V12.56q0-1.05,1.14-1.05h1.55c.76,0,1.13.35,1.13,1.05Z"/><path class="cls-1" d="M85.78,7.31H81.49q-5.33,0-5.33,4.66V23.44c0,3.1,1.78,4.66,5.33,4.66h4.29c3.55,0,5.33-1.56,5.33-4.66V20.62H85.4v2q0,1-1.14,1.05H83.17c-.75,0-1.13-.35-1.13-1.05V12.77c0-.7.38-1,1.13-1h1.09q1.14,0,1.14,1v2h5.71V12Q91.11,7.3,85.78,7.31Z"/><rect class="cls-1" x="93.88" width="5.84" height="28.1"/><rect class="cls-1" x="103.12" width="6.09" height="4.54"/><rect class="cls-1" x="103.25" y="7.31" width="5.84" height="20.79"/><path class="cls-1" d="M121.85,7.31h-4.28q-5.34,0-5.34,4.66V23.44c0,3.1,1.78,4.66,5.34,4.66h4.28c3.56,0,5.34-1.56,5.34-4.66V20.62h-5.72v2c0,.7-.37,1.05-1.13,1.05h-1.09q-1.14,0-1.14-1.05V12.77q0-1,1.14-1h1.09c.76,0,1.13.35,1.13,1v2h5.72V12Q127.19,7.3,121.85,7.31Z"/><path class="cls-1" d="M145,19.32V12q0-4.67-5.34-4.66H135q-5.29,0-5.3,4.66V23.44c0,3.1,1.77,4.66,5.3,4.66h4.7c3.56,0,5.33-1.56,5.33-4.66v-2h-5.62v1.39a1.16,1.16,0,0,1-.26.84,1.17,1.17,0,0,1-.84.25h-1.89a1.33,1.33,0,0,1-.88-.23,1,1,0,0,1-.25-.78V19.32Zm-9.79-6.8a1,1,0,0,1,.25-.78,1.27,1.27,0,0,1,.88-.23h1.94a1.21,1.21,0,0,1,.84.23,1,1,0,0,1,.25.78v3.36h-4.16Z"/></svg>