<svg xmlns="http://www.w3.org/2000/svg" id="Layer_1" data-name="Layer 1" viewBox="0 0 269.18 384"><path d="M269.18,369.9q-.18-166.18-.09-332.38c0-10.22-3.79-14-14-14-15.11,0-30.23.07-45.34-.09-1.9,0-3.77-1.25-5.68-1.85-2.55-.81-5.12-2.15-7.7-2.2-11.48-.25-23-.05-34.47-.2-1.24,0-3.21-1-3.58-2C155,8.27,148.85,2.7,139.62.49c-.2,0-.35-.32-.53-.49h-9c-8.32,2.58-15.08,7-18.5,15.47-.5,1.23-1,2.48-1.49,3.78-12.48,0-24.73-.15-37,.12-2.8.06-5.57,1.58-8.34,2.47-1.57.51-3.11,1.57-4.67,1.59-15.37.12-30.75.07-46.12.07C4,23.5.09,27.33.09,37.25V259.62a29.1,29.1,0,0,0,.14,3.74,5,5,0,0,0,5,4.73A5,5,0,0,0,11,263.88a25.09,25.09,0,0,0,.34-5.21q0-109.3,0-218.62v-5H61.25v7.16c-9.91,0-19.52,0-29.13,0-8.66,0-13.26,4.54-13.27,13.14q0,148.31,0,296.62c0,8.65,4.58,13.22,13.14,13.22,45.12,0,90.25.08,135.37-.07a84,84,0,0,0,17.83-1.87c39.05-8.66,65-41.37,65.13-82,.11-42.37,0-84.75,0-127.12,0-6-1.85-8.8-5.75-8.67s-5.49,2.82-5.49,8.62q0,43.5,0,87c0,14.13.19,28.26-.12,42.37a25.22,25.22,0,0,1-21.8,24.84,135.53,135.53,0,0,1-19.73,1.36c-31,.13-62,0-93,.06a16.43,16.43,0,0,0-4.1.22c-2.87.75-4.51,2.74-4.32,5.76s2,4.78,5,5.2a23.68,23.68,0,0,0,3.37.06h89.37c2.75,22.42-13.16,33.42-29.56,33.18C121,353.58,77.91,354,34.78,354H30.43V53.83h30.7a4.42,4.42,0,0,1,.35,1c0,6,0,12,.08,18,.09,10.14,5.7,15.69,15.87,15.7q26.63,0,53.25,0c20.63,0,41.25,0,61.88,0,9,0,14.77-5.68,15-14.63.09-2.87,0-5.75,0-8.63V53.8H239.1v67.36c0,1,0,2,0,3,.23,3.88,2.31,6.24,5.54,6.31s5.66-2.39,5.67-6.47q.06-34.69,0-69.38c0-7.65-4.78-12.26-12.52-12.35-8.62-.09-17.25,0-25.87,0-1.32,0-2.64-.13-4-.19V35h49.65V372.45H11.34v-4.78q0-37.87,0-75.75a17.58,17.58,0,0,0-.45-4.82c-.81-2.76-2.91-4-5.75-3.73a5,5,0,0,0-4.84,4.41,25.56,25.56,0,0,0-.19,4.11c0,26.13.12,52.25-.09,78.37C0,377,2.31,381.56,8.59,384h252C267.1,381.51,269.19,376.71,269.18,369.9Zm-63.06-48.83,23.63-3.8c-2.16,8.07-18.07,23.77-27.34,27.62C203.63,337.05,204.88,329,206.12,321.07ZM191.22,77.3H79.86c-7.1,0-7.5-.46-6.79-8.42,3.37,0,6.82.13,10.25,0,4.85-.23,7.78-4.54,5.36-8.14-1-1.49-3.26-2.39-5.14-3-1.6-.48-3.47-.1-5.22-.1H73.15v-27c1.27-.05,2.59-.16,3.92-.16,10.87,0,21.74,0,32.62,0,7.22,0,9.72-1.95,11.79-8.94,1.88-6.35,6.9-10.29,13.13-10.28s11.28,4,13.14,10.29c2.06,7,4.51,8.91,11.77,8.93,10.75,0,21.49,0,32.24,0h4.34V57.66H113.22a31.05,31.05,0,0,0-3.74.07,5.13,5.13,0,0,0-4.86,4.86,5,5,0,0,0,3.68,5.79,17,17,0,0,0,4.8.51q39.36,0,78.74,0h4.37c.07,1.44.16,2.31.16,3.18C196.39,76.64,195.75,77.3,191.22,77.3Z"></path><path d="M116.21,156.84c0,5.53-.08,10.51,0,15.49.13,5.77,2.87,8.45,8.59,8.54,3.49.06,7-.05,10.49,0,17.25.41,18.06-.2,17.67-17.52-.05-2.07,0-4.14,0-6.54,5.32,0,10,0,14.77,0,6.44,0,9.18-2.65,9.27-9q.12-9.17,0-18.36c-.06-6.54-2.87-9.31-9.4-9.35-4.72,0-9.44,0-14.27,0a9.51,9.51,0,0,1-.3-1.35c0-4.5,0-9-.08-13.49-.11-6.37-2.87-9.14-9.18-9.18-6,0-12,0-18,0-6.82,0-9.52,2.71-9.59,9.53,0,4.71,0,9.41,0,14.51-5.3,0-10.14,0-15,0-6.06.06-9,2.88-9,8.94-.09,6.25-.08,12.5,0,18.74s2.82,9,9.24,9.06C106.22,156.86,111.05,156.84,116.21,156.84Zm-12.49-25.5c4.93,0,9.76,0,14.58,0,6.39-.05,9-2.68,9.13-9.16.07-4.84,0-9.69,0-14.7h14.28c0,4.72,0,9.31,0,13.9,0,7.48,2.48,9.94,9.84,10h13.84v14.25c-4.67,0-9.37,0-14.07,0-6.86,0-9.54,2.68-9.61,9.52,0,4.61,0,9.22,0,14.17H127.45c0-4.68,0-9.4,0-14.12-.07-6.86-2.74-9.53-9.56-9.57-4.61,0-9.22,0-14.16,0Z"></path><path d="M212.89,257.94a25.61,25.61,0,0,0-4.11-.18H104.58c-1.38,0-3.1-.4-4,.26-1.76,1.25-3.78,2.92-4.36,4.82-.79,2.58.85,4.87,3.61,5.69a15.63,15.63,0,0,0,4.44.45q52.47,0,105,0a15.6,15.6,0,0,0,4.43-.46c2.76-.83,4-2.95,3.72-5.76A5,5,0,0,0,212.89,257.94Z"></path><path d="M213.75,206.07a13.84,13.84,0,0,0-4.42-.49q-26.24,0-52.48,0-26.43,0-52.86,0c-1.48,0-3.44-.24-4.32.57-1.58,1.45-3.24,3.51-3.51,5.49-.36,2.71,1.71,4.56,4.51,5.06a16.56,16.56,0,0,0,3,.1h106.1c1,0,2.32.35,2.93-.15,1.7-1.38,3.8-2.87,4.47-4.77C218.07,209.28,216.45,207,213.75,206.07Z"></path><path d="M59.72,229.38c6.35.17,12.71.18,19.06,0,4.75-.14,7.71-3.42,7.84-8.25.09-3,0-6,0-9,0-1.56,0-3.11,0-4.67s0-3.12,0-4.67c-.12-5-3.12-8.23-8.13-8.36q-9.34-.24-18.69,0c-4.7.13-7.81,3.06-8,7.72-.23,6.47-.23,13,0,19.43C52,226.29,55.06,229.26,59.72,229.38Zm3.48-23.49H75.07v12H63.2Z"></path><path d="M59.82,280.42q9.34.22,18.7,0c5-.11,8-3.35,8.1-8.38.08-3,0-6,0-9s.07-6.23,0-9.35c-.14-4.83-3-8.05-7.87-8.24-6.34-.23-12.71-.22-19.06,0-4.73.16-7.72,3.13-7.88,7.82-.22,6.47-.23,13,0,19.44C52,277.41,55.13,280.31,59.82,280.42Zm3.45-23.67H75.08V269H63.27Z"></path><path d="M86.64,314c0-3,0-6,0-9-.11-5.12-2.93-8.35-7.95-8.53-6.35-.22-12.72-.21-19.06,0-4.59.16-7.61,3-7.78,7.51-.25,6.6-.25,13.22,0,19.81a7.5,7.5,0,0,0,7.7,7.58c6.48.17,13,.19,19.44,0,4.54-.15,7.49-3.42,7.64-8.05C86.72,320.26,86.63,317.14,86.64,314ZM75.11,320H63.24V307.88H75.11Z"></path><path d="M134.61,30.38a5.51,5.51,0,0,0,5.5-5.4,5.52,5.52,0,0,0-11-.33A5.5,5.5,0,0,0,134.61,30.38Z"></path></svg>