<svg xmlns="http://www.w3.org/2000/svg" id="Layer_1" data-name="Layer 1" viewBox="0 0 379.61 377.46"><path d="M357.61,276.36c-20.35-15.76-40.9-31.25-61.58-47,4-4.7,8.38-9.46,12.27-14.63,29.34-38.91,35.67-81.38,14.9-125.5C300.42,40.89,259.5,18.38,207,16.05c-7.59-.34-12.95-.9-16-9-2.1-5.6-7.71-7.61-13.73-6.92-5.59.65-9.38,3.89-11.39,9.09-1.75,4.51-.82,8.8,1.4,13,7.56,14.22,15.05,28.48,22.62,42.7,4.24,8,12.2,10.83,19.45,7s9.33-11.95,5.23-20c-1.43-2.82-2.87-5.64-4.55-8.93a107.91,107.91,0,0,1,51.36,15.78c36.31,22.15,54,63.9,43.56,103.82-6.24,23.89-20.88,42.29-39.48,57.87a4,4,0,0,1-2.29,1.05c-4-.09-7.91-.36-11.91-.56V194.4c2.78,0,5.38,0,8,0,8.23-.13,14.31-6,14.27-13.76,0-7.59-6-13.51-14.05-13.53-32.62-.08-65.25-.11-97.88.1a17.17,17.17,0,0,0-9,3c-4.74,3.23-6.21,9.34-4.41,14.75a13.43,13.43,0,0,0,13.07,9.39c14.12.07,28.25,0,42.38,0h3.89v23.33c-1.28,0-2.27.05-3.25,0-12.09-.8-24.21-1.38-36.27-2.6A18.62,18.62,0,0,1,158.8,211c-10-8.27-19.49-17.22-29.6-25.39-11.35-9.18-22.89-18.18-34.85-26.55-11.63-8.13-24.26-8-36.48-1.15a90.24,90.24,0,0,0-15,11.11c-7.8,6.85-7.28,16.37,1,22.69q45,34.31,90.16,68.5a47,47,0,0,0,22.52,9.5c4.83.63,9.7.89,14.56,1.28,6.66.53,13.33,1,19.91,1.52V346H186.8c-23,0-46-.19-69,.07-13.47.16-23.28,6.71-29,19-3.14,6.69.67,12.47,8.12,12.47q87.75,0,175.51,0c7.35,0,11-5.88,8-12.62a30.78,30.78,0,0,0-19.56-17.35c-3.05-.94-6.26-1.32-9.45-2V276.74c9.91-.12,19.18.66,27.25,7.31,10,8.26,20.52,16,30.8,23.91,12.46,9.62,24.89,19.3,37.4,28.86,6.8,5.21,15.69,4.3,20.2-2.34a135.74,135.74,0,0,0,9.81-16.81c4.72-9.73,3.49-19.14-3.78-27.14A121,121,0,0,0,357.61,276.36ZM205.12,64.07c-2.91,1.35-5.21.3-6.62-2.34-8-15-16-29.93-23.79-45-2-3.82.5-7.78,5.56-7.69.7.57,2.57,1.42,3.33,2.86q11.93,22.47,23.5,45.13C208.65,60.06,207.76,62.85,205.12,64.07Zm74.2,156.19c16.48-15.9,29.23-34.18,34.72-56.73,10.26-42.18-7.42-85.79-44.37-110.16A117.76,117.76,0,0,0,208,33.77a6.12,6.12,0,0,1-3.93-2.4c-1.33-1.74-2.1-3.91-3.41-6.5,23.68-.66,45.42,4.52,65.51,15.88,31.75,17.94,51.6,44.7,57.93,80.83,5.44,31.08-2.11,59.23-20.61,84.51-4.26,5.83-9.32,11.08-13.92,16.66-1.71,2.08-3.43,2.89-6.11,1.71a42.39,42.39,0,0,0-6.55-1.72C277.87,221.76,278.57,221,279.32,220.26ZM163.83,185.39a21.26,21.26,0,0,1-3-.06c-2.72-.38-4.34-1.93-4.28-4.75.05-2.64,1.61-4.11,4.19-4.42a28.94,28.94,0,0,1,3.36-.09h92.58c1.25,0,2.81-.38,3.68.21,1.57,1.09,3.5,2.59,3.9,4.24.57,2.4-1.24,4.2-3.75,4.75a15.61,15.61,0,0,1-3.36.12Q210.5,185.41,163.83,185.39Zm78.07,9.23v25.66l-24.78-1.63v-24Zm29,171.47a21.78,21.78,0,0,1,1.06,2.19H97.55c2.65-7.54,10.82-13.11,19.59-13.29,6.74-.13,13.49,0,20.23,0H250.53Q263.76,355,270.89,366.09Zm-70.3-20.4V273l41.4,2.8v69.87ZM359.82,329c-1.64,2.5-4.75,2.75-7.58.6-7.65-5.82-15.24-11.73-22.85-17.61-15.42-11.91-30.88-23.78-46.25-35.76a38.05,38.05,0,0,0-21.33-8.2C231,266,200.25,263.66,169.45,262c-13.48-.73-25-4.77-35.75-13.19C106.57,227.54,78.89,207,51.44,186.11c-1.19-.9-2.8-1.67-3.37-2.89-.76-1.64-1.33-3.88-.8-5.47.47-1.41,2.56-2.28,4.17-3.58,2.09,1.34,3.83,2.26,5.37,3.44,28.69,22.12,57.43,44.17,86,66.49,6.73,5.27,14,7.62,22.39,8.12,28.93,1.71,57.84,3.76,86.75,5.69,4.12.27,8.23.6,12.34.83a42.12,42.12,0,0,1,23.78,9q34.65,26.57,69.31,53.1l1.18.93C361.07,323.84,361.6,326.33,359.82,329ZM367.05,317C342.9,298.46,318.8,280.23,295,261.63c-10.63-8.3-22.56-11.67-35.77-12.44-32.06-1.86-64.09-4.1-96.14-6.17a22.62,22.62,0,0,1-12.81-4.62q-45-34.87-90.2-69.65c-.38-.29-.8-.53-1.5-1,9.76-6.25,19.56-8.31,29.28-2.12a274.21,274.21,0,0,1,26.34,19.15c13,10.58,25.56,21.64,38.12,32.71a27.56,27.56,0,0,0,17.31,6.93q51.08,3.27,102.11,6.85A37.27,37.27,0,0,1,292,238.4q34.24,25.85,68.34,51.91a38,38,0,0,1,4.11,3.82C371.54,301.52,372.28,307.76,367.05,317Z"></path><path d="M44.09,157.37c12.71-6.86,19.85-17.43,20.57-33.74-1.5-16.8-10.78-30-27.08-38.06-9.78-4.84-19.87-4-29.55.93C1.11,90.06-2.06,98.08,1.43,105q12.11,23.85,25,47.28A13.17,13.17,0,0,0,44.09,157.37ZM53,113.53c4.17,8.59,3.54,17.33-1.86,26.07-8.36-16.1-16.48-31.76-24.92-48C39.87,93.91,47.61,102.52,53,113.53Zm-19.41,33.2q-11.8-22.12-23.45-44.34c-2.15-4.1,0-8.24,5.14-8.36.79.67,2.74,1.61,3.56,3.16,8,15,15.75,30.06,23.52,45.15,1.39,2.69.8,5.19-1.87,6.82C38.05,150.61,35.07,149.6,33.54,146.73Z"></path></svg>