<svg xmlns="http://www.w3.org/2000/svg" id="Layer_1" data-name="Layer 1" viewBox="0 0 384 384"><path d="M365.79,243.8c-9.48-4-19.51-5-29.7-5.14-6.11-.06-12.35.36-18.3-.7-17.11-3-29.18-13.56-38.07-27.89-10.74-17.31-16-36.44-17.71-56.61a6.72,6.72,0,0,1,1.93-4.73c15.23-14.53,29.55-29.8,40.15-48.18,8.57-14.87,12.69-30.58,11.25-48-1.22-14.78-.93-29.7-1.12-44.56,0-3.39-.88-6.07-3.72-8H282c-2.64,1.79-4.69,4-3.45,7.44s4.12,3.9,7.35,3.84c5.57-.1,11.14,0,16.53,0,.67,16.71,1.42,32.91,1.95,49.11.51,15.58-5.77,29-14.19,41.47-16.05,23.81-37,42.86-59.64,60.15-9.51,7.26-20.69,11-32.63,12-19.93,1.77-37.4-4.08-52.72-16.92-19.68-16.5-38.69-33.63-53.08-55.18-8.74-13.08-15-27-14.2-43.33.74-15.34,1-30.71,1.57-46.07a5.46,5.46,0,0,1,.43-1.26h4.41q85.67,0,171.33,0c3.23,0,6.13-.44,7.33-3.86s-.8-5.66-3.49-7.42H72c-2.84,1.69-3.81,4.13-3.87,7.47-.3,16-.42,32-1.42,47.91C65.42,75.94,72.83,93.47,84,109.9c9.47,13.9,20.88,26.12,33.18,37.52a8.24,8.24,0,0,1,3,7.74c-2.19,21.19-8,41.17-20.24,58.79-8.67,12.5-20.2,21.5-35.63,24.07-5.48.92-11.19.65-16.8.64-15.19,0-29.45,3.28-42.41,11.4A52,52,0,0,0,0,254.25V355.5c.3.91.65,1.82.91,2.74q5.51,19.67,25.21,24.94c.81.21,1.59.54,2.38.82h6.75c2.61-1.62,4.56-3.67,3.67-7-.73-2.73-2.72-4-5.52-4.23-14.39-1.37-22.15-10-22.15-24.54V267.57c0-9,0-8.88,8.21-12.47,2.32-1,3.69-.53,5.55,1.1,6.65,5.86,13.17,12,20.4,17.06C117.8,324.05,195.86,333.72,279,304.68c8.34-2.91,16.29-6.94,24.33-10.65,3.27-1.52,4.25-4.63,2.88-7.48s-4.32-3.9-7.62-2.61c-.7.28-1.35.65-2,1-42.82,20.77-87.84,28.56-135.11,22.66-40.34-5-77-19.36-109.78-43.6-5.36-4-10.42-8.35-15.61-12.55,3.81-1.1,7.26-1.12,10.67-1.53,5.8-.7,10.31,1.35,15.08,4.72C109,288,161.52,301.33,218.87,294.5c38.86-4.63,74-19.12,105.44-42.5,1.08-.8,2.32-1.9,3.52-1.94,6-.19,12.1-.09,18.16-.09l.18,1.08a35.51,35.51,0,0,1-2.62,2.45c-7.42,5.73-14.81,11.48-22.3,17.1-3.91,2.93-5,5.7-3,8.72s5.41,3.5,9.44.46c8.77-6.62,17.54-13.26,26-20.29,7.37-6.15,7.12-6.27,15.82-1.79,2.62,1.35,3.36,3,3.35,5.82-.11,28-.07,56-.07,84,0,16.38-8.84,25.23-25.22,25.23q-142.87,0-285.75,0c-3.2,0-6.09.34-7.37,3.79s.84,5.6,3.34,7.48H355.5c1.75-.54,3.52-1,5.24-1.64q17.7-6.3,22.43-24.49c.21-.8.55-1.58.83-2.37V255C379.36,248.94,372.42,246.55,365.79,243.8ZM210.38,284.11c-50.07,4.4-96-7.69-137.87-35.45.24-.54.29-.88.43-.92,23.45-7.82,37.58-25,47-46.83a147.27,147.27,0,0,0,10.59-38.12,21.42,21.42,0,0,1,.56-2.35c40.09,34,80,34,119.64.33,2.17,8.92,3.89,18,6.62,26.77,5.49,17.61,13.51,33.84,27.74,46.31a68.61,68.61,0,0,0,25.3,14.23C279.73,268.93,246.58,280.93,210.38,284.11Z"></path><path d="M381.3,122.21q-14.64-11.05-29.38-22a5.66,5.66,0,0,0-7.56.11q-21,17-41.88,34c-3.62,3-3.54,6.44,0,9.51,2.34,2,4.8,3.9,7.32,5.93-.86,1.37-1.57,2.52-2.31,3.66q-8.21,12.53-16.43,25c-1.59,2.41-2.1,4.83-.16,7.25s4.44,2.66,7.1,1.56c19.94-8.21,39.89-16.41,59.77-24.76,5-2.1,5.43-6.92,1.18-10.36-2.29-1.86-4.68-3.6-7.33-5.62,9.13-4.51,17.88-8.73,26.52-13.17,2.14-1.1,3.92-2.89,5.87-4.36v-3.75A20.22,20.22,0,0,0,381.3,122.21Zm-17.91,6c-7.92,3.94-15.88,7.82-23.77,11.81-5.58,2.82-5.92,7.15-1,11l6.18,4.73-33.62,14-.5-.57q4.82-7.4,9.65-14.78c4-6.06,3.72-7.54-2-12.11-1.16-.93-2.3-1.9-3.84-3.18l33.84-27.44,19.2,14.38C365.93,126.81,364.68,127.52,363.39,128.16Z"></path><path d="M23.11,141.66c3,1.48,5.92,3,9.23,4.66l-6.4,4.84c-5.53,4.2-5,8.84,1.33,11.5,8.17,3.42,16.37,6.76,24.55,10.15,11.3,4.67,22.57,9.39,33.89,14,4.29,1.75,8.3-.13,8.5-4.12a9.6,9.6,0,0,0-1.74-5.13c-6-9.34-12.11-18.59-18.3-28,2.47-2,4.83-3.84,7.11-5.76,3.76-3.16,3.94-6.76.23-9.8-13.83-11.3-27.75-22.5-41.62-33.75-2.74-2.21-5.4-2.14-8.18,0-6.07,4.6-12.23,9.08-18.29,13.71C8.89,117.34,4.47,121,0,124.5V129a65.81,65.81,0,0,0,6.37,4.3C11.88,136.2,17.52,138.88,23.11,141.66Zm12.57-30.38,33.83,27.44c-1.45,1.18-2.57,2.11-3.71,3-5.92,4.76-6.16,6.15-2.06,12.4C67,159,70.15,164,74,169.78L39.22,155.42c2.59-2,4.77-3.57,6.83-5.3,4.05-3.38,3.61-7.77-1.14-10.18-9.33-4.74-18.74-9.35-28.54-14.23Z"></path><path d="M214.93,94.12a34.74,34.74,0,0,0-47.07-.43c-5.8,5.28-10.05,12.28-14.94,18.55-1.81,2.32-2.54,5-.7,7.6s4.45,2.37,7.37,2c11-1.33,22-3.17,33.07-3.18,10.14,0,20.31,1.93,30.43,3.28,4.7.63,8-1.29,8-5.95a6.29,6.29,0,0,0-.8-2.21C225.24,107.15,220.9,99.78,214.93,94.12Zm-44.79,13.71c1.84-5.15,10.91-11,19.2-11.54,10.08-.68,17.56,4,23.36,11.54Z"></path><path d="M172.26,59.36c3.58.23,5.63-1.93,6.15-6.44.79-7,5.85-11.77,12.63-11.8a12.75,12.75,0,0,1,12.89,11.62c.59,4.84,2.61,7,6.27,6.61s5.5-3.4,4.89-8.2a24,24,0,0,0-24-21.28c-12.58,0-23.33,10-23.87,22.21C167,56.66,168.71,59.13,172.26,59.36Z"></path><path d="M316.17,223.58c9.42-1.1,18.83-2.27,28.21-3.66,5.65-.83,7.23-5.19,3.82-9.84-1.56-2.13-3.19-4.22-5-6.64,6.49-.87,12.29-1.65,18.11-2.41,4.55-.59,6.82-2.95,6.29-6.64-.48-3.43-3.18-5.1-7.69-4.53q-13.74,1.72-27.46,3.63c-5.3.74-7.16,5.23-4,9.6,1.59,2.2,3.32,4.31,5.37,6.95-6.58.84-12.61,1.56-18.63,2.4-4.06.56-6.36,3-6,6.27S312.1,224.06,316.17,223.58Z"></path><path d="M24.59,201c5.26.61,10.51,1.38,16.35,2.16-2.1,2.7-3.85,4.79-5.43,7-3,4.19-1.18,8.79,3.83,9.49q14.27,2,28.57,3.74c3.88.47,6.71-1.71,7-5,.28-3.15-2-5.6-5.72-6.12-6-.82-12.11-1.61-19-2.51,1.76-2.26,3.13-4,4.48-5.75,4.39-5.68,2.77-10-4.23-11-8.28-1.16-16.57-2.21-24.87-3.2-6.27-.74-8.9.68-9.21,4.69S18.49,200.31,24.59,201Z"></path><path d="M219.93,228.41c-1.86-.16-3.76.08-5.62-.12s-4.83,1.24-5.22-1.85c-.19-1.47,1.37-3.25,2.33-4.76,1.16-1.8,2.53-3.47,4.17-5.69-1.5-1.94-2.37-4.13-3.87-4.72a8.69,8.69,0,0,0-5.9.39c-1.61.67-2.64,2.63-4.14,3.71a2.88,2.88,0,0,1-4.9-2.06c-.25-2.47,0-5-.11-7.48-.13-3.76-2.41-6.22-5.59-6.19s-5.34,2.4-5.58,5.91c-.14,2,.19,4-.13,6a22.86,22.86,0,0,1-1.76,4.65c-1.41-.64-3.09-1-4.18-2-3.41-3.12-6.55-6.52-9.86-9.74-3-2.9-6.17-3.13-8.6-.75s-2.33,5.6.57,8.57c3.58,3.67,7.29,7.2,10.81,10.92.68.72,1.28,2.32.93,3a4.26,4.26,0,0,1-2.92,2c-2.59.3-5.24,0-7.86.17-3.47.23-5.77,2.68-5.67,5.73s2.31,5.15,5.65,5.36c2.74.17,5.51-.09,8.23.19a3.85,3.85,0,0,1,2.57,2,3.34,3.34,0,0,1-.64,2.78c-1.12,1.48-2.69,2.62-3.83,4.09a5.13,5.13,0,0,0,.28,7.16c2.19,2.35,4.88,2.43,7.44.64,1.41-1,2.45-2.52,3.84-3.54.86-.62,2.34-1.31,3-1a4.21,4.21,0,0,1,1.94,2.93c.29,2.72,0,5.5.21,8.23a5.62,5.62,0,0,0,5.76,5.28c3-.12,5.15-2.35,5.31-5.68.14-2.61-.14-5.26.15-7.85a4.24,4.24,0,0,1,2-2.89c.73-.35,2.32.21,3.05.89,3.72,3.51,7.26,7.22,10.92,10.8,2.85,2.77,6.3,3,8.61.6s2-5.74-.79-8.62c-3.49-3.57-7.12-7-10.52-10.67a4,4,0,0,1-1-3.36,4.13,4.13,0,0,1,3-1.82c2.59-.28,5.24,0,7.85-.19,3.34-.25,5.45-2.52,5.44-5.53S223.24,228.71,219.93,228.41ZM191.2,242a8.07,8.07,0,1,1,8-8.24A8.22,8.22,0,0,1,191.2,242Z"></path><path d="M242.89,194.26a5.78,5.78,0,0,0-5.64-5.78,5.62,5.62,0,0,0-5.53,5.43,5.46,5.46,0,0,0,5.19,5.69A5.61,5.61,0,0,0,242.89,194.26Z"></path><path d="M144.63,222.68a5.78,5.78,0,0,0-5.71-5.7,5.59,5.59,0,0,0-5.45,5.51,5.44,5.44,0,0,0,5.26,5.61A5.6,5.6,0,0,0,144.63,222.68Z"></path><path d="M241.67,238.73a5.6,5.6,0,0,0-5.44,5.89,5.45,5.45,0,0,0,5.63,5.25,5.61,5.61,0,0,0,5.53-5.44A5.79,5.79,0,0,0,241.67,238.73Z"></path><path d="M142,253.31a5.35,5.35,0,0,0-5.57,5.27,5.46,5.46,0,0,0,5.44,5.82,5.71,5.71,0,0,0,5.68-5.7A5.59,5.59,0,0,0,142,253.31Z"></path></svg>