<svg xmlns="http://www.w3.org/2000/svg" id="Layer_1" data-name="Layer 1" viewBox="0 0 359.82 360.41"><path d="M331.67,217.14a6.06,6.06,0,0,1-3.26-3.25c-3.92-9.06-10.66-14.51-20.46-15.37s-17.44,3.31-22.73,11.65c-.51.82-1,1.64-1.63,2.63-7.33-4.4-14.52-8.66-21.65-13-2.43-1.48-4.82-2.09-7.34-.37s-3,4.13-2.52,6.94c1.17,6.64,2.28,13.29,3.49,19.92.78,4.21,1.7,8.41,2.64,13-3-.58-5.25-1.21-7.58-1.45-2.73-.29-3.59-1.72-4.09-4.29-2.64-13.47-5.16-27-8.45-40.3-1.29-5.18.75-8.21,3.66-11.52,19,15.41,39.58,11.81,51.9,3.22A41.5,41.5,0,0,0,309,165.61c4.53-11.68,3.6-23.15-1.64-34.39,32.37-7.75,50.54-33.44,52.24-59.26,1.83-27.85-9.31-50-34-63.13-31.13-16.5-59-9.1-83.43,15.77-.44-.66-.74-1-1-1.45C228.18.71,204.18-6,181.78,6.8c-2.09,1.19-3.18.24-4.63-.6-19.82-11.5-44.93-5.44-56.73,14A9.28,9.28,0,0,1,113,25.12C95.92,27.68,81.67,41.58,78.75,58.46,78.31,61,77.42,62.28,75,63.21A41.64,41.64,0,0,0,53.8,123.62c1.28,2.18,1.13,3.55-.09,5.63-16.33,27.65,3.6,62.84,35.68,63.09,10.81.09,20.27-3.64,29.36-11.39,1.25,3.49,3.64,6.69,3.17,9.4-2.59,14.87-5.87,29.62-9,44.39-.2.95-.93,2.3-1.69,2.52-3,.87-6.18,1.37-9.43,2,2-11,3.76-21.46,5.69-31.88.59-3.17.56-6-2.39-8s-5.41-.77-8,.81c-6.92,4.22-13.88,8.35-21,12.59-.46-.7-.81-1.2-1.12-1.71s-.59-1.11-.94-1.62c-5.37-7.91-12.88-11.82-22.37-11-9.31.84-16.21,5.77-19.78,14.48-1.2,2.93-2.81,4.06-5.68,4.85A35.84,35.84,0,0,0,26.66,287c3,.78,6,1.15,9.23,1.74,0,13.35,0,26.59,0,39.82,0,5.26,1.42,7,6.44,7.89q61.59,10.8,123.2,21.52c5.39.94,11,2.7,16.24,2,17.55-2.45,35-5.61,52.38-9.06,5.21-1,8.42-.28,10.77,4.53,1.41,2.88,3.6,5,7.3,5,10.5-.11,21,.17,31.49-.14,18.16-.52,34.59-13.46,38.51-31.17,1.67-7.56,1.31-15.6,1.62-23.43.23-5.71.05-11.43.05-17.13.93-.11,1.42-.17,1.92-.21,18.61-1.58,32.28-15.11,33.89-33.57C361.19,237.62,349.29,221.78,331.67,217.14ZM288,174.25c-11.8,8.89-28.5,8-38.74-2.3a4.89,4.89,0,0,1-1.26-4,85,85,0,0,0,3.93-28.8c-.16-7,0-14,0-21.78,9.35,7.32,19.05,11.93,29.92,13.91,2.58.47,5.24,1.16,7.79.93,3.73-.34,5.32,1.63,6.82,4.46A29.81,29.81,0,0,1,288,174.25ZM293.9,12.38a54,54,0,1,1-.41,108c-29.72-.1-53.76-24.57-53.6-54.56C240.05,36.45,264.48,12.29,293.9,12.38ZM115.53,71.68c-6.82,1.81-7.64,2.84-7.64,9.77,0,20.49-.35,41,.17,61.47.21,8.13,2.13,16.25,3.75,24.28.49,2.39.06,3.65-1.53,5.14a30,30,0,0,1-44.7-39.47c4.73-6.51,4.73-6.51.08-12.91A29.92,29.92,0,0,1,82.82,73.24c5.64-1.4,6.81-2.78,7.11-8.36a29.81,29.81,0,0,1,30-28.41c4.27,0,6.6-1.51,8.22-5.43,7.72-18.63,30.19-24.5,46.19-12.22,4.88,3.74,6.12,3.73,11.11-.09a30,30,0,0,1,46.1,12.05,51.06,51.06,0,0,0,2.88,5c-2.42,8.44-4.74,16.54-7.17,25-5.45-3.11-11.36-6.22-17-9.78a13.34,13.34,0,0,0-11.63-1.59C171,57,143.26,64.3,115.53,71.68Zm4.55,76.62c-.31-21.61-.1-43.24-.1-65.27,8.2-2.22,16.46-4.49,24.72-6.69,18.45-4.92,36.89-9.87,55.38-14.64a8.48,8.48,0,0,1,5.54.68c6.95,3.69,13.77,7.61,20.51,11.67a6.68,6.68,0,0,1,2.81,3.89,69.64,69.64,0,0,0,9.79,24.55,7.51,7.51,0,0,1,1.11,3.81c.06,13.5.18,27-.06,40.5a56.4,56.4,0,0,1-7,25.75c-11.32-21.72-28.62-34.1-53.07-34-24.25.07-41.46,12.4-52.66,33.92A50.29,50.29,0,0,1,120.08,148.3Zm.52,108.5c4.82-23.21,9.53-46.44,14.47-69.62,4.6-21.57,22.79-36.62,44.14-36.81,21.79-.18,40.2,14.21,45.2,35.91,3.72,16.15,6.84,32.44,9.76,49-.62-.78-1.3-1.52-1.87-2.33-4.45-6.33-8.87-12.69-13.33-19-10.8-15.33-28.84-19.13-43.12-9.11-13.5,9.49-17.12,28.81-6.13,43.45,7,9.27,13.34,19,20.06,28.59-5.53,6.92-13,7.41-18.58,1.3-3.46-3.76-6.38-8-9.82-11.8-6.45-7.08-14.49-9.46-23.8-7.12-6,1.51-10.2,5.59-13.93,10.23a59.89,59.89,0,0,1-7.38,8.2Q118.45,267.22,120.6,256.8ZM42.1,274.88c-12.75,5-26.13-4.37-29.32-16-3.58-13,4.2-26.57,17.11-29.72a44.83,44.83,0,0,1,5.92-.81c3.65-.39,5.61-2.27,6.06-5.93.93-7.47,5.35-12,11.85-12.06s11.16,4.44,12.19,12.12c.68,5.16,5,7.3,9.63,4.63,5.95-3.41,11.78-7,18.73-11.16-2.62,10.45-4.49,20-7.46,29.2a279.07,279.07,0,0,1-11,27.78c-1.41,3.16-4.2,5.87-6.83,8.25-2.32,2.09-4.89,1.57-6.52-1.4-1-1.86-2-3.76-3-5.61-2.11-3.77-4.87-4.66-8.8-2.95C47.85,272.48,45,273.75,42.1,274.88Zm159.4,69.71c-4.18.73-8.44,1.15-12.52,2.26-10.8,2.94-21-.74-31.38-2.48-35.69-6-71.33-12.33-107-18.55-.84-.15-1.66-.44-2.73-.73,0-12.68,0-25.28.11-37.89,0-1,1.47-2,2.68-3.53,2.79,5.24,6.12,8.56,11.08,10a13.94,13.94,0,0,0,14.54-3.66A87.61,87.61,0,0,0,88.86,274c3.28-5.52,5.46-11.76,7.59-17.87,1-2.8,2.38-4,5.11-4.41,2.46-.35,4.89-1,8.12-1.63-1.53,7.48-2.94,14.4-4.37,21.32-1,5-2.16,10-3.15,15s1.74,8.09,6.72,7.95A21.93,21.93,0,0,0,125,286.71c3.09-3.42,5.84-7.15,8.8-10.7,6.34-7.61,13.81-7.61,20.17,0,2,2.4,3.83,4.94,5.79,7.37,10.68,13.22,23.71,14.67,37.25,3.77L233.27,339Zm79.64,3.77c-7.87.05-15.75,0-23.62.05a4.85,4.85,0,0,1-4.62-2.27q-37-53-74.06-105.94c-6.08-8.72-4.19-19.7,4.14-25.49s19.19-3.77,25.35,5q30.71,43.68,61.2,87.5c2.66,3.83,5.63,5.38,10.26,5.26,10.48-.28,21-.09,31.69-.09C314.28,332.31,300.71,348.23,281.14,348.36Zm30.75-48h-4.13c-8.49,0-17,.1-25.46-.09a6.08,6.08,0,0,1-4.21-2.09c-8.21-11.46-16.51-22.87-24.15-34.7-2.35-3.64-2.79-8.53-4.33-13.61,4.46,1,7.88,1.53,11.15,2.56,1,.31,1.72,1.87,2.23,3,3.38,7.48,6.37,15.15,10.1,22.45a40.65,40.65,0,0,0,7.74,10c9.81,9.68,20.22,8.41,27.77-3.17,2.43-.11,3.45.93,3.33,3.52C311.76,292.11,311.89,296,311.89,300.37ZM326.75,276c-5.05.34-10.51-1.72-15.38-3.68-7.05-2.84-8.76-2.63-12.17,4-4,7.71-7.3,8-12.56,1a44.52,44.52,0,0,1-4.32-7c-8.3-16.83-12.52-34.9-16.44-54.13,6.32,3.79,11.85,7.16,17.43,10.45,5.9,3.49,9.78,1.52,10.62-5.32a12,12,0,0,1,23.92.1c.62,5.25,2.08,6.66,7.31,7a24,24,0,0,1,22.7,23.16C348.2,264,339.23,275.12,326.75,276Z"></path><path d="M141.52,131.15c8.11-6.08,15.85-11.78,23.47-17.64,3.88-3,4-7.18.2-10.11-7.69-6-15.54-11.71-23.7-17.83l-7.15,9.6,17.5,13.2-17.53,13.25Z"></path><path d="M194,112.76C201.88,119,210,125,218.27,131.15l7.19-9.55L208,108.35l17.52-13.19-7.23-9.53c-8.14,6.09-16,11.86-23.69,17.78C191.14,106,190.77,110.23,194,112.76Z"></path><path d="M267.78,81.24a4,4,0,0,1-.78,3.37c-2.28,2.41-4.86,4.53-6.62,6.12l8.59,9.4c2.25-2.36,4.4-4.81,6.78-7a3.67,3.67,0,0,1,3.09-.77c3,1.06,5.91,2.49,9.26,4v11.83h11.75V96.25c3.24-1.42,6.14-2.85,9.16-3.91a3.68,3.68,0,0,1,3.07.84c2.41,2.3,4.6,4.83,6.52,6.9l9.37-8.6c-2.57-2.42-5-4.55-7.25-6.9a3.7,3.7,0,0,1-.89-3.07c1.06-3,2.5-5.92,4-9.29H335.7V60.37h-12c-1.36-3.18-2.69-5.88-3.63-8.71a4.05,4.05,0,0,1,.57-3.4c2.21-2.49,4.73-4.71,6.85-6.75l-8.84-9c-2.15,2.34-4.35,4.89-6.75,7.23a3.29,3.29,0,0,1-2.79.73c-3.11-1.15-6.1-2.61-9.4-4.07V24.65H287.9v12c-2.75,1.08-5.44,1.67-7.56,3.09-2.54,1.7-3.94.84-5.64-1-2-2.17-4.17-4.12-5.86-5.77l-8.72,8.47c2.3,2.19,4.79,4.44,7.09,6.87a3.34,3.34,0,0,1,.84,2.79c-1.16,3.1-2.63,6.1-4.11,9.41h-11.8V72.38h11.93C265.42,75.51,266.81,78.31,267.78,81.24Zm26-32.86A18,18,0,1,1,275.9,66.31,18.06,18.06,0,0,1,293.73,48.38Z"></path><path d="M299.71,60.62H288.17V72.19h11.54Z"></path></svg>